# xmcd CD database file
#
# Track frame offsets:
#	150
#	18130
#	38667
#	58432
#
# Disc length: 1016 seconds
#
# Revision: 7
# Processed by: cddbd v1.5.1PL0 Copyright (c) Steve Scherf et al.
# Submitted via: CDex 1.51
#
DISCID=2b03f604
DTITLE=倉木　麻衣 - 明日へ架ける橋
DYEAR=2004
DGENRE=Pop
TTITLE0=明日へ架ける橋
TTITLE1=Lover Boy
TTITLE2=愛をもっと
TTITLE3=明日へ架ける橋 (Instrumental)
EXTD=YEAR: 2004
EXTT0=
EXTT1=
EXTT2=
EXTT3=
PLAYORDER=
